<svg id="Capa_1" data-name="Capa 1" xmlns="http://www.w3.org/2000/svg" xmlns:xlink="http://www.w3.org/1999/xlink" viewBox="0 0 139.28 21.76"><defs><style>.cls-1{fill:#fff;}.cls-2{fill:url(#Degradado_sin_nombre);}.cls-3{fill:url(#Degradado_sin_nombre-2);}.cls-4{fill:url(#Degradado_sin_nombre-4);}</style><linearGradient id="Degradado_sin_nombre" x1="1.79" y1="11.15" x2="39.24" y2="11.15" gradientUnits="userSpaceOnUse"><stop offset="0" stop-color="#877eff"/><stop offset="0.46" stop-color="#685dff"/><stop offset="1" stop-color="#3121ff"/></linearGradient><linearGradient id="Degradado_sin_nombre-2" x1="17.11" y1="10.87" x2="38.23" y2="10.87" xlink:href="#Degradado_sin_nombre"/><linearGradient id="Degradado_sin_nombre-4" x1="2.8" y1="11.15" x2="38.23" y2="11.15" xlink:href="#Degradado_sin_nombre"/></defs><path class="cls-1" d="M42.08,14.44a.68.68,0,0,1-.23.52.76.76,0,0,1-.53.21.7.7,0,0,1-.74-.73V7.5A.69.69,0,0,1,40.8,7a.74.74,0,0,1,.55-.21.73.73,0,0,1,.51.21.69.69,0,0,1,.22.52Z"/><path class="cls-1" d="M48.24,8.63A2.17,2.17,0,0,1,49.59,9a1.91,1.91,0,0,1,.63,1,4.91,4.91,0,0,1,.18,1.38v3.07a.7.7,0,0,1-.21.52.68.68,0,0,1-.51.21.7.7,0,0,1-.52-.21.69.69,0,0,1-.2-.52V11.37a2.27,2.27,0,0,0-.11-.72,1,1,0,0,0-.36-.51,1.35,1.35,0,0,0-.76-.19,1.67,1.67,0,0,0-.81.19,1.29,1.29,0,0,0-.5.51,1.43,1.43,0,0,0-.18.72v3.07A.69.69,0,0,1,46,15a.7.7,0,0,1-.52.21A.68.68,0,0,1,45,15a.7.7,0,0,1-.21-.52v-5A.7.7,0,0,1,45,9a.68.68,0,0,1,.51-.21A.7.7,0,0,1,46,9a.69.69,0,0,1,.2.52V10l-.18,0a3.18,3.18,0,0,1,.32-.44,2.53,2.53,0,0,1,.48-.43,2.16,2.16,0,0,1,.62-.33A2.06,2.06,0,0,1,48.24,8.63Z"/><path class="cls-1" d="M56.43,8.87a.65.65,0,0,1,.48.19.61.61,0,0,1,.19.47.65.65,0,0,1-.19.48.68.68,0,0,1-.48.18H53.25a.68.68,0,0,1-.48-.18.65.65,0,0,1-.19-.48.61.61,0,0,1,.19-.47.65.65,0,0,1,.48-.19ZM56.3,6.29a1.81,1.81,0,0,1,.52.07,1.1,1.1,0,0,1,.42.24A.57.57,0,0,1,57.4,7a.64.64,0,0,1-.17.48.58.58,0,0,1-.4.17,2,2,0,0,1-.33,0,1.52,1.52,0,0,0-.42-.06.76.76,0,0,0-.46.13A.71.71,0,0,0,55.4,8a1,1,0,0,0-.06.31v6.13a.73.73,0,0,1-.2.52.75.75,0,0,1-1,0,.73.73,0,0,1-.2-.52V8.32a1.93,1.93,0,0,1,.6-1.44A2.48,2.48,0,0,1,56.3,6.29Zm3.5,8.15a.72.72,0,0,1-.73.73.66.66,0,0,1-.5-.21.7.7,0,0,1-.21-.52V7a.7.7,0,0,1,.21-.52.72.72,0,0,1,.53-.21.69.69,0,0,1,.51.21A.73.73,0,0,1,59.8,7Z"/><path class="cls-1" d="M67.29,8.75a.7.7,0,0,1,.52.21.73.73,0,0,1,.2.52v3a2.78,2.78,0,0,1-.71,2,3.17,3.17,0,0,1-4.07,0,2.82,2.82,0,0,1-.7-2v-3a.73.73,0,0,1,.2-.52.7.7,0,0,1,.52-.21.66.66,0,0,1,.51.21.7.7,0,0,1,.21.52v3a1.61,1.61,0,0,0,.32,1.09,1.28,1.28,0,0,0,1,.35,1.31,1.31,0,0,0,1-.35,1.61,1.61,0,0,0,.32-1.09v-3A.7.7,0,0,1,66.78,9,.66.66,0,0,1,67.29,8.75Z"/><path class="cls-1" d="M73.64,15.29a3.46,3.46,0,0,1-1.77-.43,3,3,0,0,1-1.15-1.15,3.37,3.37,0,0,1-.4-1.66,3.66,3.66,0,0,1,.43-1.84A3.15,3.15,0,0,1,71.9,9a3,3,0,0,1,1.5-.41,2.88,2.88,0,0,1,1.16.25,3.26,3.26,0,0,1,1,.69,3.34,3.34,0,0,1,.67,1,3.13,3.13,0,0,1,.25,1.22.65.65,0,0,1-.23.47.78.78,0,0,1-.51.18H71.12l-.36-1.2h4.4l-.26.24v-.32a1.1,1.1,0,0,0-.25-.63,1.6,1.6,0,0,0-.55-.44,1.67,1.67,0,0,0-.7-.16,2.09,2.09,0,0,0-.67.1,1.24,1.24,0,0,0-.54.32,1.65,1.65,0,0,0-.36.61,3,3,0,0,0-.13,1A2.07,2.07,0,0,0,72,13.05a1.9,1.9,0,0,0,.69.69,2,2,0,0,0,.91.23,2.78,2.78,0,0,0,.71-.07,2.14,2.14,0,0,0,.42-.17l.3-.18a.93.93,0,0,1,.4-.11A.61.61,0,0,1,76,14a.75.75,0,0,1-.34.59,2.67,2.67,0,0,1-.88.46A3.26,3.26,0,0,1,73.64,15.29Z"/><path class="cls-1" d="M82.17,8.63A2.17,2.17,0,0,1,83.52,9a1.93,1.93,0,0,1,.64,1,5.32,5.32,0,0,1,.17,1.38v3.07a.73.73,0,0,1-.2.52.7.7,0,0,1-.52.21A.66.66,0,0,1,83.1,15a.7.7,0,0,1-.21-.52V11.37a2.28,2.28,0,0,0-.1-.72,1,1,0,0,0-.37-.51,1.29,1.29,0,0,0-.75-.19,1.67,1.67,0,0,0-.81.19,1.39,1.39,0,0,0-.51.51,1.53,1.53,0,0,0-.17.72v3.07A.73.73,0,0,1,80,15a.75.75,0,0,1-1,0,.73.73,0,0,1-.2-.52v-5a.73.73,0,0,1,.2-.52.75.75,0,0,1,1,0,.73.73,0,0,1,.2.52V10L80,10a3,3,0,0,1,.31-.44,3.34,3.34,0,0,1,.48-.43,2.22,2.22,0,0,1,.63-.33A2,2,0,0,1,82.17,8.63Z"/><path class="cls-1" d="M89.79,8.63a4.71,4.71,0,0,1,1.2.14,2,2,0,0,1,.79.41.8.8,0,0,1,.28.62.82.82,0,0,1-.14.45.49.49,0,0,1-.42.21.73.73,0,0,1-.32-.06.69.69,0,0,1-.22-.14,1.3,1.3,0,0,0-.23-.15,1.06,1.06,0,0,0-.37-.12L90,10a1.89,1.89,0,0,0-1,.27,1.74,1.74,0,0,0-.66.71,2.31,2.31,0,0,0-.22,1,2.13,2.13,0,0,0,.23,1,1.88,1.88,0,0,0,.65.72,1.76,1.76,0,0,0,1,.26,3.94,3.94,0,0,0,.52,0,1.53,1.53,0,0,0,.36-.11l.3-.21a.63.63,0,0,1,.39-.1.59.59,0,0,1,.48.19.72.72,0,0,1,.17.49.7.7,0,0,1-.33.55,2.83,2.83,0,0,1-.89.39,4.38,4.38,0,0,1-1.18.15A2.93,2.93,0,0,1,87,13.66,3.77,3.77,0,0,1,86.64,12a3.6,3.6,0,0,1,.4-1.74,3,3,0,0,1,1.11-1.17A3.11,3.11,0,0,1,89.79,8.63Z"/><path class="cls-1" d="M97.24,15.29a3.46,3.46,0,0,1-1.77-.43,3,3,0,0,1-1.15-1.15,3.37,3.37,0,0,1-.4-1.66,3.66,3.66,0,0,1,.44-1.84A3.06,3.06,0,0,1,95.5,9,3,3,0,0,1,97,8.63a2.84,2.84,0,0,1,1.16.25,3.18,3.18,0,0,1,1,.69,3.32,3.32,0,0,1,.66,1,3,3,0,0,1,.25,1.22.61.61,0,0,1-.23.47.75.75,0,0,1-.5.18H94.72l-.36-1.2h4.41l-.27.24v-.32a1,1,0,0,0-.24-.63A1.59,1.59,0,0,0,97,10a2.09,2.09,0,0,0-.67.1,1.24,1.24,0,0,0-.54.32,1.65,1.65,0,0,0-.36.61,3,3,0,0,0-.13,1,2.07,2.07,0,0,0,.27,1.09,1.85,1.85,0,0,0,.7.69,1.88,1.88,0,0,0,.9.23,2.73,2.73,0,0,0,.71-.07,2,2,0,0,0,.43-.17l.29-.18a.93.93,0,0,1,.41-.11.6.6,0,0,1,.61.6.73.73,0,0,1-.34.59,2.61,2.61,0,0,1-.87.46A3.35,3.35,0,0,1,97.24,15.29Z"/><path class="cls-1" d="M107.4,6.73a.75.75,0,0,1,.72.75.83.83,0,0,1,0,.22.65.65,0,0,1-.11.22l-2.72,3.9.22-.82v3.44a.7.7,0,0,1-.21.52.68.68,0,0,1-.49.21.72.72,0,0,1-.72-.73V11.09l.1.39L101.56,8a.88.88,0,0,1-.16-.3.63.63,0,0,1-.05-.26.64.64,0,0,1,.25-.53.81.81,0,0,1,.52-.21.72.72,0,0,1,.58.34L105,10.25l-.34-.05,2.13-3.1A.72.72,0,0,1,107.4,6.73Z"/><path class="cls-1" d="M115.85,12a3.39,3.39,0,0,1-.43,1.73,3.15,3.15,0,0,1-1.18,1.17,3.45,3.45,0,0,1-3.3,0,3.13,3.13,0,0,1-1.17-1.17,3.3,3.3,0,0,1-.44-1.73,3.31,3.31,0,0,1,.44-1.74,3.13,3.13,0,0,1,1.17-1.17,3.29,3.29,0,0,1,4.48,1.17A3.4,3.4,0,0,1,115.85,12Zm-1.43,0a2.28,2.28,0,0,0-.25-1.07,1.85,1.85,0,0,0-.66-.7,1.72,1.72,0,0,0-.92-.25,1.74,1.74,0,0,0-.92.25,2,2,0,0,0-.66.7,2.28,2.28,0,0,0-.24,1.07,2.2,2.2,0,0,0,.24,1,1.93,1.93,0,0,0,.66.7,1.74,1.74,0,0,0,.92.25,1.72,1.72,0,0,0,.92-.25,1.78,1.78,0,0,0,.66-.7A2.2,2.2,0,0,0,114.42,12Z"/><path class="cls-1" d="M122.92,8.75a.7.7,0,0,1,.52.21.69.69,0,0,1,.2.52v3a2.78,2.78,0,0,1-.71,2,3.17,3.17,0,0,1-4.07,0,2.82,2.82,0,0,1-.7-2v-3a.73.73,0,0,1,.2-.52.7.7,0,0,1,.52-.21.66.66,0,0,1,.51.21.7.7,0,0,1,.21.52v3a1.61,1.61,0,0,0,.32,1.09,1.28,1.28,0,0,0,1,.35,1.3,1.3,0,0,0,1-.35,1.56,1.56,0,0,0,.32-1.09v-3a.7.7,0,0,1,.21-.52A.68.68,0,0,1,122.92,8.75Z"/><path class="cls-1" d="M126.32,8.87h2.84a.67.67,0,0,1,.48.19.66.66,0,0,1,.2.48.63.63,0,0,1-.2.47.66.66,0,0,1-.48.18h-2.84a.65.65,0,0,1-.67-.67.6.6,0,0,1,.19-.46A.65.65,0,0,1,126.32,8.87Zm1.28-1.5a.66.66,0,0,1,.51.21.71.71,0,0,1,.2.52v5.34a.47.47,0,0,0,.07.28.4.4,0,0,0,.18.16.64.64,0,0,0,.24,0,.76.76,0,0,0,.27-.05.6.6,0,0,1,.27-.06.41.41,0,0,1,.31.16.65.65,0,0,1,.14.43.64.64,0,0,1-.37.56,1.52,1.52,0,0,1-.78.21,3.78,3.78,0,0,1-.56,0,1.67,1.67,0,0,1-.58-.2,1.3,1.3,0,0,1-.45-.5,2,2,0,0,1-.18-.93V8.1a.72.72,0,0,1,.21-.52A.7.7,0,0,1,127.6,7.37Z"/><path class="cls-1" d="M135.57,8.63a2.08,2.08,0,0,1,1.32.37,1.94,1.94,0,0,1,.61,1,4.92,4.92,0,0,1,.17,1.38v3.07a.73.73,0,0,1-.2.52.75.75,0,0,1-1,0,.73.73,0,0,1-.2-.52V11.37a2.63,2.63,0,0,0-.09-.72,1,1,0,0,0-.35-.51,1.23,1.23,0,0,0-.72-.19,1.55,1.55,0,0,0-.78.19,1.26,1.26,0,0,0-.49.51,1.53,1.53,0,0,0-.16.72v3.07a.7.7,0,0,1-.21.52.66.66,0,0,1-.51.21.7.7,0,0,1-.52-.21.73.73,0,0,1-.2-.52V7a.73.73,0,0,1,.2-.52.7.7,0,0,1,.52-.21.66.66,0,0,1,.51.21.7.7,0,0,1,.21.52v3l-.18,0a2.88,2.88,0,0,1,.3-.44,2.46,2.46,0,0,1,.47-.43,2.25,2.25,0,0,1,.61-.33A1.93,1.93,0,0,1,135.57,8.63Z"/><g id="Graphic_Elements" data-name="Graphic Elements"><path class="cls-2" d="M34.46,11.15a48.22,48.22,0,0,0,4.6-5.4,1,1,0,0,0-.25-1.41L36.65,2.82a1,1,0,0,0-1.41.25A44.45,44.45,0,0,1,31,8,31.43,31.43,0,0,0,25.49,4.3a18.27,18.27,0,0,0-8.38-2.23,14.8,14.8,0,0,0-5.63,1.17A21.31,21.31,0,0,0,7,5.77,25.73,25.73,0,0,0,2.73,9.65L2,10.5a1,1,0,0,0,0,1.3l.71.85A25.55,25.55,0,0,0,7,16.54a21.31,21.31,0,0,0,4.48,2.53,15,15,0,0,0,5.63,1.16c4.47,0,9.13-2,13.89-5.9a44.7,44.7,0,0,1,4.24,4.91,1,1,0,0,0,.83.43,1,1,0,0,0,.58-.19L38.81,18a1,1,0,0,0,.41-.66,1,1,0,0,0-.17-.75A46.44,46.44,0,0,0,34.46,11.15ZM17.11,6.74a13.86,13.86,0,0,1,6.55,1.88,26.06,26.06,0,0,1,3.82,2.54,26.58,26.58,0,0,1-3.79,2.53,14,14,0,0,1-6.58,1.87c-3.87,0-7.43-2.69-9.32-4.41C9.68,9.43,13.24,6.74,17.11,6.74Z"/><path class="cls-3" d="M36.07,18.66c-.09-.13-9.25-12.93-19-12.93V3.09c11.08,0,20.71,13.47,21.12,14Z"/><path class="cls-3" d="M36.07,18.66c-.09-.13-9.25-12.93-19-12.93V3.09c11.08,0,20.71,13.47,21.12,14Z"/><path class="cls-4" d="M17.11,19.22c-7.48,0-13.36-6.93-13.6-7.22l-.71-.85.71-.85c.24-.29,6.12-7.21,13.6-7.21V5.73C12.29,5.73,8,9.44,6.33,11.15c1.71,1.71,6,5.42,10.78,5.42,9.78,0,18.86-12.79,19-12.92l2.17,1.52a47.4,47.4,0,0,1-6.24,7C26.84,16.83,21.84,19.22,17.11,19.22Z"/></g></svg>